<svg width="30" height="30" viewBox="0 0 30 30" fill="none" xmlns="http://www.w3.org/2000/svg">
<path d="M28.4781 5.89232L6.82835 5.88828L5.92 2.20153C5.78289 1.65115 5.40926 1.21812 4.94309 1.06839L1.76555 0.0566567C1.64558 0.0202344 1.52218 0 1.39878 0C0.768075 0 0.212778 0.501819 0.0482456 1.22217C-0.0477317 1.6471 0.000257081 2.09226 0.185356 2.47672C0.370455 2.86118 0.672098 3.13232 1.03201 3.24968L3.44858 4.02264L8.35371 24.9169C7.65444 25.3257 7.20198 26.1674 7.20198 27.1063C7.20198 28.4539 8.1309 29.5507 9.27234 29.5507C10.4138 29.5507 11.3427 28.4539 11.3427 27.1063C11.3427 27.0739 11.3427 27.0416 11.3393 27.0132H21.3278C21.3278 27.0456 21.3243 27.078 21.3243 27.1063C21.3243 28.4539 22.2533 29.5507 23.3947 29.5507C24.5362 29.5507 25.4651 28.4539 25.4651 27.1063C25.4651 25.8679 24.6664 24.8319 23.6484 24.6822C21.1667 24.2087 11.0342 23.63 11.0342 23.63L10.7017 22.0922H23.3433C23.9911 22.0922 24.5636 21.5782 24.7418 20.8457L27.4772 9.47385H28.4815C29.3179 9.47385 30 8.67256 30 7.68106C29.9966 6.69361 29.3179 5.89232 28.4781 5.89232ZM12.3779 18.28H10.0093C9.94418 18.28 9.84821 18.2962 9.80707 18.1181C9.75223 17.8915 9.67339 17.5758 9.67339 17.5758L7.81555 9.85022C7.80526 9.8138 7.81212 9.76928 7.83269 9.74095C7.85325 9.70857 7.8841 9.69239 7.91838 9.69239H10.7977C10.8491 9.69239 10.8902 9.73286 10.9005 9.78951L12.4704 18.0938L12.4773 18.1181C12.4807 18.1302 12.4807 18.1424 12.4807 18.1545C12.4842 18.2233 12.4362 18.28 12.3779 18.28ZM18.4245 9.84212L17.1459 18.1828C17.1356 18.2395 17.0911 18.28 17.0431 18.28H15.2572C15.2058 18.28 15.1647 18.2395 15.1544 18.1828L13.8758 9.84617C13.869 9.80975 13.8758 9.76928 13.8964 9.74095C13.917 9.71262 13.9478 9.69239 13.9787 9.69239H18.3251C18.3593 9.69239 18.3868 9.70857 18.4073 9.74095C18.4245 9.76523 18.4313 9.8057 18.4245 9.84212ZM24.4813 9.85022L22.4761 18.1869C22.4624 18.2395 22.4212 18.28 22.3732 18.28H19.9224C19.8915 18.28 19.8607 18.2638 19.8401 18.2314C19.8196 18.2031 19.8127 18.1626 19.8196 18.1262L21.3963 9.78951C21.4066 9.73286 21.4512 9.69239 21.4992 9.69239H24.3785C24.4128 9.69239 24.4436 9.71262 24.4642 9.74095C24.4813 9.76928 24.4882 9.8138 24.4813 9.85022Z" fill="#3A68C1"/>
</svg>
